<?xml version="1.0" encoding="UTF-8" standalone="no"?>
<!DOCTYPE svg PUBLIC "-//W3C//DTD SVG 1.0//EN" "http://www.w3.org/TR/2001/REC-SVG-20010904/DTD/svg10.dtd">
<!-- Generated by Microsoft Visio 11.0, SVG Export, v1.0 QTC-Net.svg Page-1 -->
<svg xmlns="http://www.w3.org/2000/svg" xmlns:xlink="http://www.w3.org/1999/xlink" xmlns:ev="http://www.w3.org/2001/xml-events"
		xmlns:v="http://schemas.microsoft.com/visio/2003/SVGExtensions/" width="11.5615in" height="3.89498in"
		viewBox="0 0 832.429 280.439" xml:space="preserve" color-interpolation-filters="sRGB" class="st23">
	<v:documentProperties v:langID="1033" v:metric="true" v:viewMarkup="false">
		<v:userDefs>
			<v:ud v:nameU="msvNoAutoConnect" v:val="VT0(0):26"/>
		</v:userDefs>
	</v:documentProperties>

	<style type="text/css">
	<![CDATA[
		.st1 {fill:url(#grad26-4);stroke:#1f477d;stroke-linecap:round;stroke-linejoin:round;stroke-width:0.25}
		.st2 {fill:#ffffff;stroke:none;stroke-linecap:butt;stroke-width:7.2}
		.st3 {fill:#000000;font-family:Calibri;font-size:0.666664em}
		.st4 {font-size:1em}
		.st5 {fill:#ff00ff;fill-opacity:0}
		.st6 {stroke:#000000;stroke-linecap:round;stroke-linejoin:round;stroke-opacity:0;stroke-width:0.72}
		.st7 {fill:url(#grad40-21)}
		.st8 {stroke:#373773;stroke-linecap:round;stroke-linejoin:round;stroke-width:0.72}
		.st9 {fill:url(#grad40-21);stroke:#555555;stroke-linecap:round;stroke-linejoin:round;stroke-width:0.72}
		.st10 {stroke:#555555;stroke-linecap:round;stroke-linejoin:round;stroke-width:0.72}
		.st11 {stroke:#000000;stroke-linecap:round;stroke-linejoin:round;stroke-width:2}
		.st12 {fill:#ff00ff;fill-opacity:0;stroke:#000000;stroke-linecap:round;stroke-linejoin:round;stroke-opacity:0;stroke-width:0.72}
		.st13 {fill:url(#grad30-125);stroke:#ffffff;stroke-linecap:round;stroke-linejoin:round;stroke-width:0.72}
		.st14 {fill:url(#grad26-129);stroke:#000000;stroke-linecap:round;stroke-linejoin:round;stroke-width:0.72}
		.st15 {fill:url(#grad32-133);stroke:#000000;stroke-linecap:round;stroke-linejoin:round;stroke-width:0.72}
		.st16 {stroke:#000000;stroke-linecap:round;stroke-linejoin:round;stroke-width:0.72}
		.st17 {stroke:#000000;stroke-linecap:round;stroke-linejoin:round;stroke-width:1.5}
		.st18 {fill:#ffffff;stroke:#000000;stroke-linecap:round;stroke-linejoin:round;stroke-width:0.24}
		.st19 {fill:#000000;font-family:Calibri;font-size:2.50001em}
		.st20 {stroke:#000000;stroke-linecap:round;stroke-linejoin:round;stroke-width:0.25}
		.st21 {fill:none;stroke:none;stroke-linecap:round;stroke-linejoin:round;stroke-width:0.75}
		.st22 {fill:#000000;font-family:Calibri;font-size:1.00001em}
		.st23 {fill:none;fill-rule:evenodd;font-size:12px;overflow:visible;stroke-linecap:square;stroke-miterlimit:3}
	]]>
	</style>

	<defs id="Patterns_And_Gradients">
		<linearGradient id="grad26-4" v:fillPattern="26" v:foreground="#ffff00" v:background="#000000" x1="0" y1="0" x2="1" y2="0">
			<stop offset="0" style="stop-color:#000000;stop-opacity:1"/>
			<stop offset="0.5" style="stop-color:#ffff00;stop-opacity:1"/>
			<stop offset="1" style="stop-color:#000000;stop-opacity:1"/>
		</linearGradient>
		<radialGradient id="grad40-21" v:fillPattern="40" v:foreground="#c6d1e3" v:background="#4e8ec2" cx="0.5" cy="0.5" r="0.5">
			<stop offset="0" style="stop-color:#c6d1e3;stop-opacity:1"/>
			<stop offset="1" style="stop-color:#4e8ec2;stop-opacity:1"/>
		</radialGradient>
		<linearGradient id="grad30-125" v:fillPattern="30" v:foreground="#ffffff" v:background="#dddddd" x1="0" y1="1" x2="0"
				y2="0">
			<stop offset="0" style="stop-color:#ffffff;stop-opacity:1"/>
			<stop offset="1" style="stop-color:#dddddd;stop-opacity:1"/>
		</linearGradient>
		<linearGradient id="grad26-129" v:fillPattern="26" v:foreground="#ffffff" v:background="#c0c0c0" x1="0" y1="0" x2="1"
				y2="0">
			<stop offset="0" style="stop-color:#c0c0c0;stop-opacity:1"/>
			<stop offset="0.5" style="stop-color:#ffffff;stop-opacity:1"/>
			<stop offset="1" style="stop-color:#c0c0c0;stop-opacity:1"/>
		</linearGradient>
		<pattern id="grad32-133" v:fillPattern="32" v:foreground="#ffffff" v:background="#c0c0c0" x="0" y="0" width="1" height="1"
				patternContentUnits="objectBoundingBox">
			<path d="M 0 1 L 0 0 L 1 0 z" style="fill:url(#grad27-134)"/>
			<path d="M 0 1 L 1 1 L 1 0 z" style="fill:url(#grad28-135)"/>
		</pattern>
		<linearGradient id="grad27-134" v:fillPattern="32" v:foreground="#ffffff" v:background="#c0c0c0" x1="1" y1="0" x2="0"
				y2="0">
			<stop offset="0" style="stop-color:#ffffff;stop-opacity:1"/>
			<stop offset="1" style="stop-color:#c0c0c0;stop-opacity:1"/>
		</linearGradient>
		<linearGradient id="grad28-135" v:fillPattern="32" v:foreground="#ffffff" v:background="#c0c0c0" x1="0" y1="0" x2="0"
				y2="1">
			<stop offset="0" style="stop-color:#ffffff;stop-opacity:1"/>
			<stop offset="1" style="stop-color:#c0c0c0;stop-opacity:1"/>
		</linearGradient>
	</defs>
	<g v:mID="0" v:index="1" v:groupContext="foregroundPage">
		<title>Page-1</title>
		<v:pageProperties v:drawingScale="0.0393701" v:pageScale="0.0393701" v:drawingUnits="24" v:shadowOffsetX="8.50394"
				v:shadowOffsetY="-8.50394"/>
		<v:layer v:name="Connector" v:index="0"/>
		<g id="shape64-1" v:mID="64" v:groupContext="shape" transform="translate(66.4035,-130.388)">
			<title>Comm-link.64</title>
			<desc>CW QSO on HF or SSB or PSK31 or YOUNAMEIT</desc>
			<v:custProps>
				<v:cp v:nameU="Manufacturer" v:lbl="Manufacturer" v:type="0" v:sortKey="" v:invis="false" v:ask="false"
						v:langID="1033" v:val="VT4()"/>
				<v:cp v:nameU="ProductNumber" v:lbl="Product Number" v:type="0" v:sortKey="" v:invis="false" v:ask="false"
						v:langID="1033" v:val="VT4()"/>
				<v:cp v:nameU="PartNumber" v:lbl="Part Number" v:type="0" v:sortKey="" v:invis="false" v:ask="false"
						v:langID="1033" v:val="VT4()"/>
				<v:cp v:nameU="ProductDescription" v:lbl="Product Description" v:type="0" v:sortKey="" v:invis="false"
						v:ask="false" v:langID="1033" v:val="VT4()"/>
				<v:cp v:nameU="AssetNumber" v:lbl="Asset Number" v:type="0" v:sortKey="" v:invis="false" v:ask="false"
						v:langID="1033" v:val="VT4()"/>
				<v:cp v:nameU="SerialNumber" v:lbl="Serial Number" v:type="0" v:sortKey="" v:invis="false" v:ask="false"
						v:langID="1033" v:val="VT4()"/>
				<v:cp v:nameU="Location" v:lbl="Location" v:type="0" v:sortKey="" v:invis="false" v:ask="false" v:langID="1033"
						v:val="VT4()"/>
				<v:cp v:nameU="Building" v:lbl="Building" v:type="0" v:sortKey="" v:invis="false" v:ask="false" v:langID="1033"
						v:val="VT4()"/>
				<v:cp v:nameU="Room" v:lbl="Room" v:type="0" v:sortKey="" v:invis="false" v:ask="false" v:langID="1033"
						v:val="VT4()"/>
				<v:cp v:nameU="Department" v:lbl="Department" v:type="0" v:sortKey="" v:invis="false" v:ask="false" v:langID="1033"
						v:val="VT4()"/>
				<v:cp v:nameU="ShapeClass" v:lbl="ShapeClass" v:type="0" v:invis="true" v:ask="false" v:langID="1033"
						v:val="VT4(Connectivity)"/>
				<v:cp v:nameU="ShapeType" v:lbl="ShapeType" v:type="0" v:invis="true" v:ask="false" v:langID="1033"
						v:val="VT4(Conceptual)"/>
				<v:cp v:nameU="SubShapeType" v:lbl="SubShapeType" v:type="0" v:invis="true" v:ask="false" v:langID="1033"
						v:val="VT4(Comm Link)"/>
			</v:custProps>
			<v:userDefs>
				<v:ud v:nameU="HasText" v:val="VT0(1):5"/>
				<v:ud v:nameU="visVersion" v:val="VT0(14):26"/>
				<v:ud v:nameU="ShapeClass" v:val="VT0(4):26"/>
				<v:ud v:nameU="ShapeType" v:val="VT0(7):26"/>
				<v:ud v:nameU="SubShapeType" v:val="VT0(10):26"/>
				<v:ud v:nameU="SolSH" v:val="VT14({BF0433D9-CD73-4EB5-8390-8653BE590246}):41"/>
				<v:ud v:nameU="visLegendShape" v:val="VT0(2):26"/>
			</v:userDefs>
			<v:textBlock v:margins="rect(4,4,4,4)" v:tabSpace="42.5197"/>
			<v:textRect cx="85.0394" cy="298.84" width="62.84" height="36.8035"/>
			<path d="M0 269.1 L96.38 257.76 L87.87 273.64 L170.08 269.1 L73.7 280.44 L82.2 264.56 L0 269.1 Z" class="st1"/>
			<rect v:rectContext="textBkgnd" x="59.4299" y="284.441" width="51.2188" height="28.7996" class="st2"/>
			<text x="60.92" y="291.64" class="st3" v:langID="1031"><v:paragraph v:horizAlign="1"/><v:tabList/>CW QSO on HF<v:newlineChar/><tspan
						x="59.43" dy="1.2em" class="st4">or SSB or PSK</tspan>31 <v:newlineChar/><tspan x="60.24" dy="1.2em"
						class="st4">or YOUNAMEIT</tspan></text>		</g>
		<g id="shape65-9" v:mID="65" v:groupContext="shape" transform="translate(853.865,252.885) rotate(132.879)">
			<title>Comm-link.65</title>
			<desc>FMUKW QSO Via Local Repeater</desc>
			<v:custProps>
				<v:cp v:nameU="Manufacturer" v:lbl="Manufacturer" v:type="0" v:sortKey="" v:invis="false" v:ask="false"
						v:langID="1033" v:val="VT4()"/>
				<v:cp v:nameU="ProductNumber" v:lbl="Product Number" v:type="0" v:sortKey="" v:invis="false" v:ask="false"
						v:langID="1033" v:val="VT4()"/>
				<v:cp v:nameU="PartNumber" v:lbl="Part Number" v:type="0" v:sortKey="" v:invis="false" v:ask="false"
						v:langID="1033" v:val="VT4()"/>
				<v:cp v:nameU="ProductDescription" v:lbl="Product Description" v:type="0" v:sortKey="" v:invis="false"
						v:ask="false" v:langID="1033" v:val="VT4()"/>
				<v:cp v:nameU="AssetNumber" v:lbl="Asset Number" v:type="0" v:sortKey="" v:invis="false" v:ask="false"
						v:langID="1033" v:val="VT4()"/>
				<v:cp v:nameU="SerialNumber" v:lbl="Serial Number" v:type="0" v:sortKey="" v:invis="false" v:ask="false"
						v:langID="1033" v:val="VT4()"/>
				<v:cp v:nameU="Location" v:lbl="Location" v:type="0" v:sortKey="" v:invis="false" v:ask="false" v:langID="1033"
						v:val="VT4()"/>
				<v:cp v:nameU="Building" v:lbl="Building" v:type="0" v:sortKey="" v:invis="false" v:ask="false" v:langID="1033"
						v:val="VT4()"/>
				<v:cp v:nameU="Room" v:lbl="Room" v:type="0" v:sortKey="" v:invis="false" v:ask="false" v:langID="1033"
						v:val="VT4()"/>
				<v:cp v:nameU="Department" v:lbl="Department" v:type="0" v:sortKey="" v:invis="false" v:ask="false" v:langID="1033"
						v:val="VT4()"/>
				<v:cp v:nameU="ShapeClass" v:lbl="ShapeClass" v:type="0" v:invis="true" v:ask="false" v:langID="1033"
						v:val="VT4(Connectivity)"/>
				<v:cp v:nameU="ShapeType" v:lbl="ShapeType" v:type="0" v:invis="true" v:ask="false" v:langID="1033"
						v:val="VT4(Conceptual)"/>
				<v:cp v:nameU="SubShapeType" v:lbl="SubShapeType" v:type="0" v:invis="true" v:ask="false" v:langID="1033"
						v:val="VT4(Comm Link)"/>
			</v:custProps>
			<v:userDefs>
				<v:ud v:nameU="HasText" v:val="VT0(1):5"/>
				<v:ud v:nameU="visVersion" v:val="VT0(14):26"/>
				<v:ud v:nameU="ShapeClass" v:val="VT0(4):26"/>
				<v:ud v:nameU="ShapeType" v:val="VT0(7):26"/>
				<v:ud v:nameU="SubShapeType" v:val="VT0(10):26"/>
				<v:ud v:nameU="SolSH" v:val="VT14({BF0433D9-CD73-4EB5-8390-8653BE590246}):41"/>
				<v:ud v:nameU="visLegendShape" v:val="VT0(2):26"/>
			</v:userDefs>
			<v:textBlock v:margins="rect(4,4,4,4)" v:tabSpace="42.5197"/>
			<v:textRect cx="67.6948" cy="289.24" width="114.96" height="17.6036" transform="rotate(-180)"/>
			<path d="M0 271.93 L76.2 263.43 L69.82 275.34 L135.39 271.93 L59.19 280.44 L65.57 268.53 L0 271.93 Z" class="st1"/>
			<rect v:rectContext="textBkgnd" x="-120.264" y="-294.04" width="105.139" height="9.59985" transform="rotate(-180)"
					class="st2"/>
			<text x="-120.26" y="-286.84" transform="rotate(-180)" class="st3" v:langID="1031"><v:paragraph v:horizAlign="1"/><v:tabList/>FMUKW QSO Via Local Repeater</text>		</g>
		<g id="group90-14" transform="translate(744.766,-67.6003)" v:mID="90" v:groupContext="group">
			<v:custProps>
				<v:cp v:nameU="Name" v:lbl="Name" v:type="0" v:invis="false" v:ask="false" v:langID="1033"/>
				<v:cp v:nameU="Location" v:lbl="Location" v:type="0" v:invis="false" v:ask="false" v:langID="1033"/>
				<v:cp v:nameU="Building" v:lbl="Building" v:type="0" v:invis="false" v:ask="false" v:langID="1033"/>
				<v:cp v:nameU="Room" v:lbl="Room" v:type="0" v:invis="false" v:ask="false" v:langID="1033"/>
				<v:cp v:nameU="Department" v:lbl="Department" v:type="0" v:invis="false" v:ask="false" v:langID="1033"/>
				<v:cp v:nameU="ShapeClass" v:lbl="ShapeClass" v:type="0" v:invis="true" v:ask="false" v:langID="1033"
						v:val="VT4(Connectivity)"/>
				<v:cp v:nameU="ShapeType" v:lbl="ShapeType" v:type="0" v:invis="true" v:ask="false" v:langID="1033"
						v:val="VT4(User)"/>
			</v:custProps>
			<v:userDefs>
				<v:ud v:nameU="HasText" v:val="VT0(0):5"/>
				<v:ud v:nameU="ShapeClass" v:val="VT0(4):26"/>
				<v:ud v:nameU="ShapeType" v:val="VT0(4):26"/>
				<v:ud v:nameU="SolSH" v:val="VT14({BF0433D9-CD73-4EB5-8390-8653BE590246}):41"/>
				<v:ud v:nameU="visLegendShape" v:val="VT0(2):26"/>
				<v:ud v:nameU="visVersion" v:prompt="" v:val="VT0(14):26"/>
			</v:userDefs>
			<title>User.90</title>
			<g id="shape91-15" v:mID="91" v:groupContext="shape" transform="translate(-4.60905,5.68434E-014)">
				<title>Sheet.91</title>
				<path d="M11.66 243.53 A19.0671 18.6615 -180 0 0 0 259.85 L0.06 267.5 A6.49779 6.35958 -180 0 0 2.49 272.55 A2.50228
							 2.44905 -180 0 0 5.27 273 A3.34855 3.27733 -180 0 0 6.87 275.48 A45.299 44.3354 -180 0 0 28.24 280.44
							 A14.6407 14.3293 -180 0 0 35.12 278.64 A2.37367 2.32318 -180 0 0 37.88 279.09 A9.81186 9.60315 -180
							 0 0 42.49 274.36 L42.49 260.86 A18.6915 18.2939 -180 0 0 30.86 244.87 L30.75 244.86 A12.641 12.3721
							 -180 1 0 11.69 243.53 L11.66 243.53 Z" class="st5"/>
				<path d="M11.66 243.53 A19.0671 18.6615 -180 0 0 0 259.85 L0.06 267.5 A6.49779 6.35958 -180 0 0 2.49 272.55 A2.50228
							 2.44905 -180 0 0 5.27 273 A3.34855 3.27733 -180 0 0 6.87 275.48 A45.299 44.3354 -180 0 0 28.24 280.44
							 A14.6407 14.3293 -180 0 0 35.12 278.64 A2.37367 2.32318 -180 0 0 37.88 279.09 A9.81186 9.60315 -180
							 0 0 42.49 274.36 L42.49 260.86 A18.6915 18.2939 -180 0 0 30.86 244.87 L30.75 244.86 A12.641 12.3721
							 -180 1 0 11.69 243.53" class="st6"/>
			</g>
			<g id="shape92-18" v:mID="92" v:groupContext="shape" transform="translate(0.0287731,-5.68434E-013)">
				<title>Sheet.92</title>
				<path d="M6.87 275.48 A45.299 44.3354 -180 0 0 28.24 280.44 A14.6407 14.3293 -180 0 0 35.12 278.64 A2.37367 2.32318
							 -180 0 0 37.88 279.09 A9.81186 9.60315 -180 0 0 42.49 274.36 L42.49 260.86 A18.6915 18.2939 -180 0 0
							 30.86 244.87 L11.66 243.53 A19.0671 18.6615 -180 0 0 0 259.85 L0.06 267.5 A6.49779 6.35958 -180 0 0
							 2.49 272.55 A2.50228 2.44905 -180 0 0 5.27 273 A3.34855 3.27733 -180 0 0 6.87 275.48 Z" class="st7"/>
				<path d="M6.87 275.48 A45.299 44.3354 -180 0 0 28.24 280.44 A14.6407 14.3293 -180 0 0 35.12 278.64 A2.37367 2.32318
							 -180 0 0 37.88 279.09 A9.81186 9.60315 -180 0 0 42.49 274.36 L42.49 260.86 A18.6915 18.2939 -180 0 0
							 30.86 244.87M11.66 243.53 A19.0671 18.6615 -180 0 0 0 259.85 L0.06 267.5 A6.49779 6.35958 -180 0 0 2.49
							 272.55 A2.50228 2.44905 -180 0 0 5.27 273 A3.34855 3.27733 -180 0 0 6.87 275.48" class="st8"/>
			</g>
			<g id="shape93-23" v:mID="93" v:groupContext="shape" transform="translate(9.19345,-31.9487)">
				<title>Sheet.93</title>
				<ellipse cx="12.641" cy="268.067" rx="12.641" ry="12.3721" class="st9"/>
			</g>
			<g id="shape94-26" v:mID="94" v:groupContext="shape" transform="translate(-271.329,226.92) rotate(-80.5423)">
				<title>Sheet.94</title>
				<path d="M0 280.44 A43.8253 55.1945 0 0 1 23.71 280.44" class="st10"/>
			</g>
			<g id="shape95-30" v:mID="95" v:groupContext="shape" transform="translate(-243.366,299.368) rotate(-94.2553)">
				<title>Sheet.95</title>
				<path d="M-0 279.29 A84.7366 106.767 -180 0 0 24.82 279.29" class="st10"/>
			</g>
			<g id="shape96-34" v:mID="96" v:groupContext="shape" transform="translate(11.7216,-32.1571)">
				<title>Sheet.96</title>
				<path d="M-0 275.48 A12.6648 12.3954 -180 0 0 19.09 276.81" class="st10"/>
			</g>
			<g id="shape97-38" v:mID="97" v:groupContext="shape" transform="translate(0.0287731,5.68434E-014)">
				<title>Sheet.97</title>
				<path d="M11.66 243.53 A19.4535 19.0397 -180 0 0 0 259.86 L0.06 267.5 A6.49779 6.35958 -180 0 0 2.49 272.55 A2.50228
							 2.44905 -180 0 0 5.27 273 A3.34855 3.27733 -180 0 0 6.87 275.48 A45.299 44.3354 -180 0 0 28.24 280.44
							 A14.6407 14.3293 -180 0 0 35.12 278.64 A2.37367 2.32318 -180 0 0 37.88 279.09 A9.81186 9.60315 -180
							 0 0 42.49 274.36 L42.49 262.12 A18.5051 18.1115 -180 0 0 30.86 244.87 L30.75 244.86 A12.646 12.377 -180
							 1 0 11.66 243.53" class="st11"/>
			</g>
		</g>
		<g id="group98-41" transform="translate(45.1437,-113.38)" v:mID="98" v:groupContext="group">
			<v:custProps>
				<v:cp v:nameU="Name" v:lbl="Name" v:type="0" v:invis="false" v:ask="false" v:langID="1033"/>
				<v:cp v:nameU="Location" v:lbl="Location" v:type="0" v:invis="false" v:ask="false" v:langID="1033"/>
				<v:cp v:nameU="Building" v:lbl="Building" v:type="0" v:invis="false" v:ask="false" v:langID="1033"/>
				<v:cp v:nameU="Room" v:lbl="Room" v:type="0" v:invis="false" v:ask="false" v:langID="1033"/>
				<v:cp v:nameU="Department" v:lbl="Department" v:type="0" v:invis="false" v:ask="false" v:langID="1033"/>
				<v:cp v:nameU="ShapeClass" v:lbl="ShapeClass" v:type="0" v:invis="true" v:ask="false" v:langID="1033"
						v:val="VT4(Connectivity)"/>
				<v:cp v:nameU="ShapeType" v:lbl="ShapeType" v:type="0" v:invis="true" v:ask="false" v:langID="1033"
						v:val="VT4(User)"/>
			</v:custProps>
			<v:userDefs>
				<v:ud v:nameU="HasText" v:val="VT0(0):5"/>
				<v:ud v:nameU="ShapeClass" v:val="VT0(4):26"/>
				<v:ud v:nameU="ShapeType" v:val="VT0(4):26"/>
				<v:ud v:nameU="SolSH" v:val="VT14({BF0433D9-CD73-4EB5-8390-8653BE590246}):41"/>
				<v:ud v:nameU="visLegendShape" v:val="VT0(2):26"/>
				<v:ud v:nameU="visVersion" v:prompt="" v:val="VT0(14):26"/>
			</v:userDefs>
			<title>User.98</title>
			<g id="shape99-42" v:mID="99" v:groupContext="shape" transform="translate(-4.60905,5.68434E-014)">
				<title>Sheet.99</title>
				<path d="M11.66 243.53 A19.0671 18.6615 -180 0 0 0 259.85 L0.06 267.5 A6.49779 6.35958 -180 0 0 2.49 272.55 A2.50228
							 2.44905 -180 0 0 5.27 273 A3.34855 3.27733 -180 0 0 6.87 275.48 A45.299 44.3354 -180 0 0 28.24 280.44
							 A14.6407 14.3293 -180 0 0 35.12 278.64 A2.37367 2.32318 -180 0 0 37.88 279.09 A9.81186 9.60315 -180
							 0 0 42.49 274.36 L42.49 260.86 A18.6915 18.2939 -180 0 0 30.86 244.87 L30.75 244.86 A12.641 12.3721
							 -180 1 0 11.69 243.53 L11.66 243.53 Z" class="st5"/>
				<path d="M11.66 243.53 A19.0671 18.6615 -180 0 0 0 259.85 L0.06 267.5 A6.49779 6.35958 -180 0 0 2.49 272.55 A2.50228
							 2.44905 -180 0 0 5.27 273 A3.34855 3.27733 -180 0 0 6.87 275.48 A45.299 44.3354 -180 0 0 28.24 280.44
							 A14.6407 14.3293 -180 0 0 35.12 278.64 A2.37367 2.32318 -180 0 0 37.88 279.09 A9.81186 9.60315 -180
							 0 0 42.49 274.36 L42.49 260.86 A18.6915 18.2939 -180 0 0 30.86 244.87 L30.75 244.86 A12.641 12.3721
							 -180 1 0 11.69 243.53" class="st6"/>
			</g>
			<g id="shape100-45" v:mID="100" v:groupContext="shape" transform="translate(0.0287731,-5.68434E-013)">
				<title>Sheet.100</title>
				<path d="M6.87 275.48 A45.299 44.3354 -180 0 0 28.24 280.44 A14.6407 14.3293 -180 0 0 35.12 278.64 A2.37367 2.32318
							 -180 0 0 37.88 279.09 A9.81186 9.60315 -180 0 0 42.49 274.36 L42.49 260.86 A18.6915 18.2939 -180 0 0
							 30.86 244.87 L11.66 243.53 A19.0671 18.6615 -180 0 0 0 259.85 L0.06 267.5 A6.49779 6.35958 -180 0 0
							 2.49 272.55 A2.50228 2.44905 -180 0 0 5.27 273 A3.34855 3.27733 -180 0 0 6.87 275.48 Z" class="st7"/>
				<path d="M6.87 275.48 A45.299 44.3354 -180 0 0 28.24 280.44 A14.6407 14.3293 -180 0 0 35.12 278.64 A2.37367 2.32318
							 -180 0 0 37.88 279.09 A9.81186 9.60315 -180 0 0 42.49 274.36 L42.49 260.86 A18.6915 18.2939 -180 0 0
							 30.86 244.87M11.66 243.53 A19.0671 18.6615 -180 0 0 0 259.85 L0.06 267.5 A6.49779 6.35958 -180 0 0 2.49
							 272.55 A2.50228 2.44905 -180 0 0 5.27 273 A3.34855 3.27733 -180 0 0 6.87 275.48" class="st8"/>
			</g>
			<g id="shape101-49" v:mID="101" v:groupContext="shape" transform="translate(9.19345,-31.9487)">
				<title>Sheet.101</title>
				<ellipse cx="12.641" cy="268.067" rx="12.641" ry="12.3721" class="st9"/>
			</g>
			<g id="shape102-52" v:mID="102" v:groupContext="shape" transform="translate(-271.329,226.92) rotate(-80.5423)">
				<title>Sheet.102</title>
				<path d="M0 280.44 A43.8253 55.1945 0 0 1 23.71 280.44" class="st10"/>
			</g>
			<g id="shape103-56" v:mID="103" v:groupContext="shape" transform="translate(-243.366,299.368) rotate(-94.2553)">
				<title>Sheet.103</title>
				<path d="M-0 279.29 A84.7366 106.767 -180 0 0 24.82 279.29" class="st10"/>
			</g>
			<g id="shape104-60" v:mID="104" v:groupContext="shape" transform="translate(11.7216,-32.1571)">
				<title>Sheet.104</title>
				<path d="M-0 275.48 A12.6648 12.3954 -180 0 0 19.09 276.81" class="st10"/>
			</g>
			<g id="shape105-64" v:mID="105" v:groupContext="shape" transform="translate(0.0287731,5.68434E-014)">
				<title>Sheet.105</title>
				<path d="M11.66 243.53 A19.4535 19.0397 -180 0 0 0 259.86 L0.06 267.5 A6.49779 6.35958 -180 0 0 2.49 272.55 A2.50228
							 2.44905 -180 0 0 5.27 273 A3.34855 3.27733 -180 0 0 6.87 275.48 A45.299 44.3354 -180 0 0 28.24 280.44
							 A14.6407 14.3293 -180 0 0 35.12 278.64 A2.37367 2.32318 -180 0 0 37.88 279.09 A9.81186 9.60315 -180
							 0 0 42.49 274.36 L42.49 262.12 A18.5051 18.1115 -180 0 0 30.86 244.87 L30.75 244.86 A12.646 12.377 -180
							 1 0 11.66 243.53" class="st11"/>
			</g>
		</g>
		<g id="group114-67" transform="translate(215.222,-113.38)" v:mID="114" v:groupContext="group">
			<v:custProps>
				<v:cp v:nameU="Name" v:lbl="Name" v:type="0" v:invis="false" v:ask="false" v:langID="1033"/>
				<v:cp v:nameU="Location" v:lbl="Location" v:type="0" v:invis="false" v:ask="false" v:langID="1033"/>
				<v:cp v:nameU="Building" v:lbl="Building" v:type="0" v:invis="false" v:ask="false" v:langID="1033"/>
				<v:cp v:nameU="Room" v:lbl="Room" v:type="0" v:invis="false" v:ask="false" v:langID="1033"/>
				<v:cp v:nameU="Department" v:lbl="Department" v:type="0" v:invis="false" v:ask="false" v:langID="1033"/>
				<v:cp v:nameU="ShapeClass" v:lbl="ShapeClass" v:type="0" v:invis="true" v:ask="false" v:langID="1033"
						v:val="VT4(Connectivity)"/>
				<v:cp v:nameU="ShapeType" v:lbl="ShapeType" v:type="0" v:invis="true" v:ask="false" v:langID="1033"
						v:val="VT4(User)"/>
			</v:custProps>
			<v:userDefs>
				<v:ud v:nameU="HasText" v:val="VT0(0):5"/>
				<v:ud v:nameU="ShapeClass" v:val="VT0(4):26"/>
				<v:ud v:nameU="ShapeType" v:val="VT0(4):26"/>
				<v:ud v:nameU="SolSH" v:val="VT14({BF0433D9-CD73-4EB5-8390-8653BE590246}):41"/>
				<v:ud v:nameU="visLegendShape" v:val="VT0(2):26"/>
				<v:ud v:nameU="visVersion" v:prompt="" v:val="VT0(14):26"/>
			</v:userDefs>
			<title>User.114</title>
			<g id="shape115-68" v:mID="115" v:groupContext="shape" transform="translate(-4.60905,5.68434E-014)">
				<title>Sheet.115</title>
				<path d="M11.66 243.53 A19.0671 18.6615 -180 0 0 0 259.85 L0.06 267.5 A6.49779 6.35958 -180 0 0 2.49 272.55 A2.50228
							 2.44905 -180 0 0 5.27 273 A3.34855 3.27733 -180 0 0 6.87 275.48 A45.299 44.3354 -180 0 0 28.24 280.44
							 A14.6407 14.3293 -180 0 0 35.12 278.64 A2.37367 2.32318 -180 0 0 37.88 279.09 A9.81186 9.60315 -180
							 0 0 42.49 274.36 L42.49 260.86 A18.6915 18.2939 -180 0 0 30.86 244.87 L30.75 244.86 A12.641 12.3721
							 -180 1 0 11.69 243.53 L11.66 243.53 Z" class="st5"/>
				<path d="M11.66 243.53 A19.0671 18.6615 -180 0 0 0 259.85 L0.06 267.5 A6.49779 6.35958 -180 0 0 2.49 272.55 A2.50228
							 2.44905 -180 0 0 5.27 273 A3.34855 3.27733 -180 0 0 6.87 275.48 A45.299 44.3354 -180 0 0 28.24 280.44
							 A14.6407 14.3293 -180 0 0 35.12 278.64 A2.37367 2.32318 -180 0 0 37.88 279.09 A9.81186 9.60315 -180
							 0 0 42.49 274.36 L42.49 260.86 A18.6915 18.2939 -180 0 0 30.86 244.87 L30.75 244.86 A12.641 12.3721
							 -180 1 0 11.69 243.53" class="st6"/>
			</g>
			<g id="shape116-71" v:mID="116" v:groupContext="shape" transform="translate(0.0287731,-5.68434E-013)">
				<title>Sheet.116</title>
				<path d="M6.87 275.48 A45.299 44.3354 -180 0 0 28.24 280.44 A14.6407 14.3293 -180 0 0 35.12 278.64 A2.37367 2.32318
							 -180 0 0 37.88 279.09 A9.81186 9.60315 -180 0 0 42.49 274.36 L42.49 260.86 A18.6915 18.2939 -180 0 0
							 30.86 244.87 L11.66 243.53 A19.0671 18.6615 -180 0 0 0 259.85 L0.06 267.5 A6.49779 6.35958 -180 0 0
							 2.49 272.55 A2.50228 2.44905 -180 0 0 5.27 273 A3.34855 3.27733 -180 0 0 6.87 275.48 Z" class="st7"/>
				<path d="M6.87 275.48 A45.299 44.3354 -180 0 0 28.24 280.44 A14.6407 14.3293 -180 0 0 35.12 278.64 A2.37367 2.32318
							 -180 0 0 37.88 279.09 A9.81186 9.60315 -180 0 0 42.49 274.36 L42.49 260.86 A18.6915 18.2939 -180 0 0
							 30.86 244.87M11.66 243.53 A19.0671 18.6615 -180 0 0 0 259.85 L0.06 267.5 A6.49779 6.35958 -180 0 0 2.49
							 272.55 A2.50228 2.44905 -180 0 0 5.27 273 A3.34855 3.27733 -180 0 0 6.87 275.48" class="st8"/>
			</g>
			<g id="shape117-75" v:mID="117" v:groupContext="shape" transform="translate(9.19345,-31.9487)">
				<title>Sheet.117</title>
				<ellipse cx="12.641" cy="268.067" rx="12.641" ry="12.3721" class="st9"/>
			</g>
			<g id="shape118-78" v:mID="118" v:groupContext="shape" transform="translate(-271.329,226.92) rotate(-80.5423)">
				<title>Sheet.118</title>
				<path d="M0 280.44 A43.8253 55.1945 0 0 1 23.71 280.44" class="st10"/>
			</g>
			<g id="shape119-82" v:mID="119" v:groupContext="shape" transform="translate(-243.366,299.368) rotate(-94.2553)">
				<title>Sheet.119</title>
				<path d="M-0 279.29 A84.7366 106.767 -180 0 0 24.82 279.29" class="st10"/>
			</g>
			<g id="shape120-86" v:mID="120" v:groupContext="shape" transform="translate(11.7216,-32.1571)">
				<title>Sheet.120</title>
				<path d="M-0 275.48 A12.6648 12.3954 -180 0 0 19.09 276.81" class="st10"/>
			</g>
			<g id="shape121-90" v:mID="121" v:groupContext="shape" transform="translate(0.0287731,5.68434E-014)">
				<title>Sheet.121</title>
				<path d="M11.66 243.53 A19.4535 19.0397 -180 0 0 0 259.86 L0.06 267.5 A6.49779 6.35958 -180 0 0 2.49 272.55 A2.50228
							 2.44905 -180 0 0 5.27 273 A3.34855 3.27733 -180 0 0 6.87 275.48 A45.299 44.3354 -180 0 0 28.24 280.44
							 A14.6407 14.3293 -180 0 0 35.12 278.64 A2.37367 2.32318 -180 0 0 37.88 279.09 A9.81186 9.60315 -180
							 0 0 42.49 274.36 L42.49 262.12 A18.5051 18.1115 -180 0 0 30.86 244.87 L30.75 244.86 A12.646 12.377 -180
							 1 0 11.66 243.53" class="st11"/>
			</g>
		</g>
		<g id="group141-93" transform="translate(541.207,-85.0333)" v:mID="141" v:groupContext="group">
			<v:custProps>
				<v:cp v:nameU="Name" v:lbl="Name" v:type="0" v:invis="false" v:ask="false" v:langID="1033"/>
				<v:cp v:nameU="Location" v:lbl="Location" v:type="0" v:invis="false" v:ask="false" v:langID="1033"/>
				<v:cp v:nameU="Building" v:lbl="Building" v:type="0" v:invis="false" v:ask="false" v:langID="1033"/>
				<v:cp v:nameU="Room" v:lbl="Room" v:type="0" v:invis="false" v:ask="false" v:langID="1033"/>
				<v:cp v:nameU="Department" v:lbl="Department" v:type="0" v:invis="false" v:ask="false" v:langID="1033"/>
				<v:cp v:nameU="ShapeClass" v:lbl="ShapeClass" v:type="0" v:invis="true" v:ask="false" v:langID="1033"
						v:val="VT4(Connectivity)"/>
				<v:cp v:nameU="ShapeType" v:lbl="ShapeType" v:type="0" v:invis="true" v:ask="false" v:langID="1033"
						v:val="VT4(User)"/>
			</v:custProps>
			<v:userDefs>
				<v:ud v:nameU="HasText" v:val="VT0(0):5"/>
				<v:ud v:nameU="ShapeClass" v:val="VT0(4):26"/>
				<v:ud v:nameU="ShapeType" v:val="VT0(4):26"/>
				<v:ud v:nameU="SolSH" v:val="VT14({BF0433D9-CD73-4EB5-8390-8653BE590246}):41"/>
				<v:ud v:nameU="visLegendShape" v:val="VT0(2):26"/>
				<v:ud v:nameU="visVersion" v:prompt="" v:val="VT0(14):26"/>
			</v:userDefs>
			<title>User.141</title>
			<g id="shape142-94" v:mID="142" v:groupContext="shape" transform="translate(-4.60905,5.68434E-014)">
				<title>Sheet.142</title>
				<path d="M11.66 243.53 A19.0671 18.6615 -180 0 0 0 259.85 L0.06 267.5 A6.49779 6.35958 -180 0 0 2.49 272.55 A2.50228
							 2.44905 -180 0 0 5.27 273 A3.34855 3.27733 -180 0 0 6.87 275.48 A45.299 44.3354 -180 0 0 28.24 280.44
							 A14.6407 14.3293 -180 0 0 35.12 278.64 A2.37367 2.32318 -180 0 0 37.88 279.09 A9.81186 9.60315 -180
							 0 0 42.49 274.36 L42.49 260.86 A18.6915 18.2939 -180 0 0 30.86 244.87 L30.75 244.86 A12.641 12.3721
							 -180 1 0 11.69 243.53 L11.66 243.53 Z" class="st5"/>
				<path d="M11.66 243.53 A19.0671 18.6615 -180 0 0 0 259.85 L0.06 267.5 A6.49779 6.35958 -180 0 0 2.49 272.55 A2.50228
							 2.44905 -180 0 0 5.27 273 A3.34855 3.27733 -180 0 0 6.87 275.48 A45.299 44.3354 -180 0 0 28.24 280.44
							 A14.6407 14.3293 -180 0 0 35.12 278.64 A2.37367 2.32318 -180 0 0 37.88 279.09 A9.81186 9.60315 -180
							 0 0 42.49 274.36 L42.49 260.86 A18.6915 18.2939 -180 0 0 30.86 244.87 L30.75 244.86 A12.641 12.3721
							 -180 1 0 11.69 243.53" class="st6"/>
			</g>
			<g id="shape143-97" v:mID="143" v:groupContext="shape" transform="translate(0.0287731,-5.68434E-013)">
				<title>Sheet.143</title>
				<path d="M6.87 275.48 A45.299 44.3354 -180 0 0 28.24 280.44 A14.6407 14.3293 -180 0 0 35.12 278.64 A2.37367 2.32318
							 -180 0 0 37.88 279.09 A9.81186 9.60315 -180 0 0 42.49 274.36 L42.49 260.86 A18.6915 18.2939 -180 0 0
							 30.86 244.87 L11.66 243.53 A19.0671 18.6615 -180 0 0 0 259.85 L0.06 267.5 A6.49779 6.35958 -180 0 0
							 2.49 272.55 A2.50228 2.44905 -180 0 0 5.27 273 A3.34855 3.27733 -180 0 0 6.87 275.48 Z" class="st7"/>
				<path d="M6.87 275.48 A45.299 44.3354 -180 0 0 28.24 280.44 A14.6407 14.3293 -180 0 0 35.12 278.64 A2.37367 2.32318
							 -180 0 0 37.88 279.09 A9.81186 9.60315 -180 0 0 42.49 274.36 L42.49 260.86 A18.6915 18.2939 -180 0 0
							 30.86 244.87M11.66 243.53 A19.0671 18.6615 -180 0 0 0 259.85 L0.06 267.5 A6.49779 6.35958 -180 0 0 2.49
							 272.55 A2.50228 2.44905 -180 0 0 5.27 273 A3.34855 3.27733 -180 0 0 6.87 275.48" class="st8"/>
			</g>
			<g id="shape144-101" v:mID="144" v:groupContext="shape" transform="translate(9.19345,-31.9487)">
				<title>Sheet.144</title>
				<ellipse cx="12.641" cy="268.067" rx="12.641" ry="12.3721" class="st9"/>
			</g>
			<g id="shape145-104" v:mID="145" v:groupContext="shape" transform="translate(-271.329,226.92) rotate(-80.5423)">
				<title>Sheet.145</title>
				<path d="M0 280.44 A43.8253 55.1945 0 0 1 23.71 280.44" class="st10"/>
			</g>
			<g id="shape146-108" v:mID="146" v:groupContext="shape" transform="translate(-243.366,299.368) rotate(-94.2553)">
				<title>Sheet.146</title>
				<path d="M-0 279.29 A84.7366 106.767 -180 0 0 24.82 279.29" class="st10"/>
			</g>
			<g id="shape147-112" v:mID="147" v:groupContext="shape" transform="translate(11.7216,-32.1571)">
				<title>Sheet.147</title>
				<path d="M-0 275.48 A12.6648 12.3954 -180 0 0 19.09 276.81" class="st10"/>
			</g>
			<g id="shape148-116" v:mID="148" v:groupContext="shape" transform="translate(0.0287731,5.68434E-014)">
				<title>Sheet.148</title>
				<path d="M11.66 243.53 A19.4535 19.0397 -180 0 0 0 259.86 L0.06 267.5 A6.49779 6.35958 -180 0 0 2.49 272.55 A2.50228
							 2.44905 -180 0 0 5.27 273 A3.34855 3.27733 -180 0 0 6.87 275.48 A45.299 44.3354 -180 0 0 28.24 280.44
							 A14.6407 14.3293 -180 0 0 35.12 278.64 A2.37367 2.32318 -180 0 0 37.88 279.09 A9.81186 9.60315 -180
							 0 0 42.49 274.36 L42.49 262.12 A18.5051 18.1115 -180 0 0 30.86 244.87 L30.75 244.86 A12.646 12.377 -180
							 1 0 11.66 243.53" class="st11"/>
			</g>
		</g>
		<g id="group67-119" transform="translate(647.506,-191.333)" v:mID="67" v:groupContext="group">
			<v:custProps>
				<v:cp v:nameU="ShapeClass" v:lbl="ShapeClass" v:type="0" v:invis="true" v:ask="false" v:langID="1033"
						v:val="VT4(Equipment)"/>
				<v:cp v:nameU="ShapeType" v:lbl="ShapeType" v:type="0" v:invis="true" v:ask="false" v:langID="1033"
						v:val="VT4(Device)"/>
				<v:cp v:nameU="SubShapeType" v:lbl="SubShapeType" v:type="0" v:invis="true" v:ask="false" v:langID="1033"
						v:val="VT4(AccessPoint)"/>
				<v:cp v:nameU="Manufacturer" v:lbl="Manufacturer" v:type="0" v:sortKey="Equipment" v:invis="false" v:ask="false"
						v:langID="1033"/>
				<v:cp v:nameU="ProductNumber" v:lbl="Product Number" v:type="0" v:sortKey="Equipment" v:invis="false" v:ask="false"
						v:langID="1033"/>
				<v:cp v:nameU="PartNumber" v:lbl="Part Number" v:type="0" v:sortKey="Equipment" v:invis="false" v:ask="false"
						v:langID="1033"/>
				<v:cp v:nameU="ProductDescription" v:lbl="Product Description" v:type="0" v:sortKey="Equipment" v:invis="false"
						v:ask="false" v:langID="1033"/>
				<v:cp v:nameU="AssetNumber" v:lbl="Asset Number" v:type="0" v:sortKey="Asset" v:invis="false" v:ask="false"
						v:langID="1033"/>
				<v:cp v:nameU="SerialNumber" v:lbl="Serial Number" v:type="0" v:sortKey="Asset" v:invis="false" v:ask="false"
						v:langID="1033"/>
				<v:cp v:nameU="Location" v:lbl="Location" v:type="0" v:sortKey="Asset" v:invis="false" v:ask="false"
						v:langID="1033"/>
				<v:cp v:nameU="Building" v:lbl="Building" v:type="0" v:sortKey="Asset" v:invis="false" v:ask="false"
						v:langID="1033"/>
				<v:cp v:nameU="Room" v:lbl="Room" v:type="0" v:sortKey="Asset" v:invis="false" v:ask="false" v:langID="1033"/>
				<v:cp v:nameU="NetworkName" v:lbl="Network Name" v:type="0" v:sortKey="Network" v:invis="false" v:ask="false"
						v:langID="1033"/>
				<v:cp v:nameU="IPAddress" v:lbl="IP Address" v:type="0" v:sortKey="Network" v:invis="false" v:ask="false"
						v:langID="1033"/>
				<v:cp v:nameU="SubnetMask" v:lbl="Subnet Mask" v:type="0" v:sortKey="Network" v:invis="false" v:ask="false"
						v:langID="1033"/>
				<v:cp v:nameU="AdminInterface" v:lbl="Administrative Interface" v:type="0" v:sortKey="Network" v:invis="false"
						v:ask="false" v:langID="1033"/>
				<v:cp v:nameU="NumberofPorts" v:lbl="Number of Ports" v:type="0" v:sortKey="Network" v:invis="false" v:ask="false"
						v:langID="1033"/>
				<v:cp v:nameU="MACAddress" v:lbl="MAC Address" v:type="0" v:sortKey="Network" v:invis="false" v:ask="false"
						v:langID="1033"/>
				<v:cp v:nameU="CommunityString" v:lbl="Community String" v:type="0" v:sortKey="Network" v:invis="false"
						v:ask="false" v:langID="1033"/>
				<v:cp v:nameU="NetworkDescription" v:lbl="Network Description" v:type="0" v:sortKey="Network" v:invis="false"
						v:ask="false" v:langID="1033"/>
				<v:cp v:nameU="SSID" v:lbl="SSID" v:type="0" v:sortKey="Network" v:invis="false" v:ask="false" v:langID="1033"/>
			</v:custProps>
			<v:userDefs>
				<v:ud v:nameU="HasText" v:val="VT0(0):5"/>
				<v:ud v:nameU="ShapeClass" v:val="VT0(6):26"/>
				<v:ud v:nameU="ShapeType" v:val="VT0(7):26"/>
				<v:ud v:nameU="SubShapeType" v:val="VT0(1):26"/>
				<v:ud v:nameU="SolSH" v:val="VT14({BF0433D9-CD73-4EB5-8390-8653BE590246}):41"/>
				<v:ud v:nameU="visLegendShape" v:val="VT0(2):26"/>
				<v:ud v:nameU="visVersion" v:prompt="" v:val="VT0(14):26"/>
			</v:userDefs>
			<title>Wireless access point</title>
			<g id="shape151-120" v:mID="151" v:groupContext="shape">
				<title>Sheet.151</title>
				<path d="M7.09 242.93 A1.41732 1.41732 -180 1 0 4.25 242.93 A1.41732 1.41732 -180 1 0 7.09 242.93 ZM8.49 257.61 A2.83465
							 1.62992 -180 0 0 2.85 257.61 L0.05 276.75 A5.66929 3.25984 -180 1 0 11.29 276.75 L8.51 257.76 L8.49
							 257.61 ZM5.61 259.39 A2.83465 1.62992 -180 0 0 5.73 259.39 A3.12823 3.12823 0 0 1 5.61 259.39 Z"
						class="st12"/>
			</g>
			<g id="shape152-122" v:mID="152" v:groupContext="shape" transform="translate(4.25197,-21.0472)">
				<title>Sheet.152</title>
				<ellipse cx="2.83465" cy="278.809" rx="2.83465" ry="1.62992" class="st13"/>
			</g>
			<g id="shape153-126" v:mID="153" v:groupContext="shape" transform="translate(1.41732,5.68434E-014)">
				<title>Sheet.153</title>
				<path d="M11.29 276.75 L8.49 257.61 A3.12823 3.12823 0 0 1 2.85 257.61 L0.05 276.75 A5.66929 3.25984 -180 1 0 11.29
							 276.75 Z" class="st14"/>
			</g>
			<g id="shape154-130" v:mID="154" v:groupContext="shape" transform="translate(5.66929,-36.0914)">
				<title>Sheet.154</title>
				<ellipse cx="1.41732" cy="279.021" rx="1.41732" ry="1.41732" class="st15"/>
			</g>
			<g id="shape155-136" v:mID="155" v:groupContext="shape" transform="translate(-273.352,257.762) rotate(-90)">
				<title>Sheet.155</title>
				<path d="M0 280.44 L13.41 280.44" class="st16"/>
			</g>
			<g id="shape156-140" v:mID="156" v:groupContext="shape" transform="translate(0,-32.4977)">
				<title>Sheet.156</title>
				<path d="M4.08 272.42 A4.25197 4.25197 -180 0 0 4.08 278.43" class="st16"/>
				<path d="M10.09 278.43 A4.25286 4.2529 -180 0 0 10.09 272.42" class="st16"/>
				<path d="M2.08 270.42 A7.08661 7.08661 -180 0 0 2.08 280.44" class="st16"/>
				<path d="M12.1 280.44 A7.08809 7.08816 -180 0 0 12.1 270.42" class="st16"/>
			</g>
			<g id="shape157-147" v:mID="157" v:groupContext="shape" transform="translate(1.41732,-1.27021E-007)">
				<title>Sheet.157</title>
				<path d="M5.67 256.13 A2.83973 1.63284 -180 0 0 2.85 257.61 L0.05 276.75 A5.66929 3.25984 -180 1 0 11.29 276.75 L8.51
							 257.76 A2.83973 1.63284 -180 0 0 5.67 256.13" class="st17"/>
				<path d="M5.67 256.13 L5.67 244.35" class="st17"/>
				<path d="M7.09 242.93 A1.41732 1.41732 -180 1 0 4.25 242.93 A1.41732 1.41732 -180 1 0 7.09 242.93" class="st17"/>
			</g>
		</g>
		<g id="shape158-152" v:mID="158" v:groupContext="shape" transform="translate(849.173,-118.039) rotate(46.3092)">
			<title>Comm-link.158</title>
			<desc>FMUKW QSO Via Local Repeater</desc>
			<v:custProps>
				<v:cp v:nameU="Manufacturer" v:lbl="Manufacturer" v:type="0" v:sortKey="" v:invis="false" v:ask="false"
						v:langID="1033" v:val="VT4()"/>
				<v:cp v:nameU="ProductNumber" v:lbl="Product Number" v:type="0" v:sortKey="" v:invis="false" v:ask="false"
						v:langID="1033" v:val="VT4()"/>
				<v:cp v:nameU="PartNumber" v:lbl="Part Number" v:type="0" v:sortKey="" v:invis="false" v:ask="false"
						v:langID="1033" v:val="VT4()"/>
				<v:cp v:nameU="ProductDescription" v:lbl="Product Description" v:type="0" v:sortKey="" v:invis="false"
						v:ask="false" v:langID="1033" v:val="VT4()"/>
				<v:cp v:nameU="AssetNumber" v:lbl="Asset Number" v:type="0" v:sortKey="" v:invis="false" v:ask="false"
						v:langID="1033" v:val="VT4()"/>
				<v:cp v:nameU="SerialNumber" v:lbl="Serial Number" v:type="0" v:sortKey="" v:invis="false" v:ask="false"
						v:langID="1033" v:val="VT4()"/>
				<v:cp v:nameU="Location" v:lbl="Location" v:type="0" v:sortKey="" v:invis="false" v:ask="false" v:langID="1033"
						v:val="VT4()"/>
				<v:cp v:nameU="Building" v:lbl="Building" v:type="0" v:sortKey="" v:invis="false" v:ask="false" v:langID="1033"
						v:val="VT4()"/>
				<v:cp v:nameU="Room" v:lbl="Room" v:type="0" v:sortKey="" v:invis="false" v:ask="false" v:langID="1033"
						v:val="VT4()"/>
				<v:cp v:nameU="Department" v:lbl="Department" v:type="0" v:sortKey="" v:invis="false" v:ask="false" v:langID="1033"
						v:val="VT4()"/>
				<v:cp v:nameU="ShapeClass" v:lbl="ShapeClass" v:type="0" v:invis="true" v:ask="false" v:langID="1033"
						v:val="VT4(Connectivity)"/>
				<v:cp v:nameU="ShapeType" v:lbl="ShapeType" v:type="0" v:invis="true" v:ask="false" v:langID="1033"
						v:val="VT4(Conceptual)"/>
				<v:cp v:nameU="SubShapeType" v:lbl="SubShapeType" v:type="0" v:invis="true" v:ask="false" v:langID="1033"
						v:val="VT4(Comm Link)"/>
			</v:custProps>
			<v:userDefs>
				<v:ud v:nameU="HasText" v:val="VT0(1):5"/>
				<v:ud v:nameU="visVersion" v:val="VT0(14):26"/>
				<v:ud v:nameU="ShapeClass" v:val="VT0(4):26"/>
				<v:ud v:nameU="ShapeType" v:val="VT0(7):26"/>
				<v:ud v:nameU="SubShapeType" v:val="VT0(10):26"/>
				<v:ud v:nameU="SolSH" v:val="VT14({BF0433D9-CD73-4EB5-8390-8653BE590246}):41"/>
				<v:ud v:nameU="visLegendShape" v:val="VT0(2):26"/>
			</v:userDefs>
			<v:textBlock v:margins="rect(4,4,4,4)" v:tabSpace="42.5197"/>
			<v:textRect cx="80.6591" cy="294.04" width="114.96" height="27.2035"/>
			<path d="M0 269.1 L92 257.76 L83.49 273.64 L161.32 269.1 L69.32 280.44 L77.82 264.56 L0 269.1 Z" class="st1"/>
			<rect v:rectContext="textBkgnd" x="28.0895" y="284.441" width="105.139" height="19.1997" class="st2"/>
			<text x="28.09" y="291.64" class="st3" v:langID="1031"><v:paragraph v:horizAlign="1"/><v:tabList/>FMUKW QSO Via Local Repeater<v:newlineChar/></text>		</g>
		<g id="shape1-157" v:mID="1" v:groupContext="shape" transform="translate(300.262,-106.293)">
			<title>Cloud</title>
			<desc>QTC-Net</desc>
			<v:userDefs>
				<v:ud v:nameU="visVersion" v:val="VT0(14):26"/>
			</v:userDefs>
			<v:textBlock v:margins="rect(1,1,1,1)" v:tabSpace="42.5197"/>
			<v:textRect cx="109.134" cy="202.486" width="218.27" height="155.906"/>
			<path d="M4.73 202.65 A9.04357 9.62906 0 0 1 7.81 184.95 A12.2917 13.0874 0 0 1 19.45 165.1 A14.1139 15.0277 0 0 1 39.41
						 148.1 A9.63215 10.2557 0 0 1 56.79 139.28 A10.577 11.2618 0 0 1 75.38 133.41 A20.8975 22.2504 0 0 1 104.44
						 129.71 A6.24339 6.6476 0 0 1 116.64 129.92 A6.95837 6.16188 38.87 0 1 129.59 129.67 A6.34553 4.4691 9.83
						 0 1 140.74 133.41 A11.851 8.32044 13.74 0 1 163.43 139.33 A7.30581 4.91073 138.75 0 1 171.5 145.04 A11.9982
						 12.7749 0 0 1 190.73 158.86 A13.2891 9.34408 12.33 0 1 198.48 170.72 A16.9626 11.9778 176.96 0 1 209.95
						 190.49 A9.80364 6.92454 0 0 1 211.39 202.65 A4.89301 5.20978 0 1 1 210.6 211.71 A10.5279 11.2095 0 0 1 203.7
						 230.29 A6.9469 5.86498 177.55 1 1 196.67 240.2 A14.1139 15.0277 0 0 1 176.71 257.2 A11.036 7.79498 0 0 1
						 159.33 266.02 A8.77407 9.34211 0 0 1 142.51 271.08 A9.16063 7.44249 7.87 0 1 125.05 274.65 A8.65281 6.11168
						 0 0 1 108.06 275.64 A11.0672 7.81704 0 0 1 86.99 274.11 A10.1112 7.09842 14.33 0 1 69.31 266.52 A8.76163
						 5.30483 11.15 1 1 53.75 260.98 A10.3492 11.0192 0 0 1 39.17 248.27 A14.1254 15.0399 0 0 1 21.95 248.27 A24.8373
						 17.5016 8.91 0 1 12.42 230.29 A9.7711 10.4037 0 0 1 3.48 212.32 A9.63542 6.76361 14.02 0 1 4.73 202.65 Z"
					class="st18"/>
			<text x="56.97" y="211.49" class="st19" v:langID="1031"><v:paragraph v:horizAlign="1"/><v:tabList/>QTC-Net</text>		</g>
		<g id="shape2-160" v:mID="2" v:groupContext="shape" v:layerMember="0" transform="translate(236.482,-170.061)">
			<title>Dynamic connector</title>
			<path d="M0 280.44 L0 266.25 L63.78 266.25" class="st20"/>
		</g>
		<g id="shape3-163" v:mID="3" v:groupContext="shape" v:layerMember="0" transform="translate(562.467,-141.715)">
			<title>Dynamic connector.3</title>
			<path d="M0 280.44 L0 237.91 L-43.94 237.91" class="st20"/>
		</g>
		<g id="shape4-166" v:mID="4" v:groupContext="shape" transform="translate(18.75,-72.1199)">
			<title>Sheet.4</title>
			<desc>example sender</desc>
			<v:textBlock v:margins="rect(4,4,4,4)" v:tabSpace="42.5197"/>
			<v:textRect cx="47.6535" cy="270.439" width="95.31" height="20"/>
			<rect x="0" y="260.439" width="95.3071" height="20" class="st21"/>
			<text x="8.82" y="274.04" class="st22" v:langID="1031"><v:paragraph v:horizAlign="1"/><v:tabList/>example sender</text>		</g>
		<g id="shape5-169" v:mID="5" v:groupContext="shape" transform="translate(718.372,-26.3404)">
			<title>Sheet.5</title>
			<desc>example receiver</desc>
			<v:textBlock v:margins="rect(4,4,4,4)" v:tabSpace="42.5197"/>
			<v:textRect cx="47.6535" cy="270.439" width="95.31" height="20"/>
			<rect x="0" y="260.439" width="95.3071" height="20" class="st21"/>
			<text x="5.77" y="274.04" class="st22" v:langID="1031"><v:paragraph v:horizAlign="1"/><v:tabList/>example receiver</text>		</g>
		<g id="shape6-172" v:mID="6" v:groupContext="shape" transform="translate(176.608,-70.8601)">
			<title>Sheet.6</title>
			<desc>some nice example friend cheasing for qsp points</desc>
			<v:textBlock v:margins="rect(4,4,4,4)" v:tabSpace="42.5197"/>
			<v:textRect cx="76" cy="270.439" width="152" height="20"/>
			<rect x="0" y="260.439" width="152" height="20" class="st21"/>
			<text x="51.3" y="259.64" class="st22" v:langID="1031"><v:paragraph v:horizAlign="1"/><v:tabList/>some nice<v:newlineChar/><tspan
						x="39.29" dy="1.2em" class="st4">example friend<v:newlineChar/></tspan><tspan x="19.74" dy="1.2em"
						class="st4">cheasing for qsp points</tspan></text>		</g>
		<g id="shape7-177" v:mID="7" v:groupContext="shape" transform="translate(486.467,-29.6003)">
			<title>Sheet.7</title>
			<desc>some nice example friend cheasing for qsp points</desc>
			<v:textBlock v:margins="rect(4,4,4,4)" v:tabSpace="42.5197"/>
			<v:textRect cx="76" cy="270.439" width="152" height="20"/>
			<rect x="0" y="260.439" width="152" height="20" class="st21"/>
			<text x="51.3" y="259.64" class="st22" v:langID="1031"><v:paragraph v:horizAlign="1"/><v:tabList/>some nice<v:newlineChar/><tspan
						x="39.29" dy="1.2em" class="st4">example friend<v:newlineChar/></tspan><tspan x="19.74" dy="1.2em"
						class="st4">cheasing for qsp points</tspan></text>		</g>
	</g>
</svg>
